<?xml version="1.0" encoding="UTF-8"?>
<svg width="267px" height="43px" viewBox="0 0 267 43" version="1.1" xmlns="http://www.w3.org/2000/svg" xmlns:xlink="http://www.w3.org/1999/xlink">
    <!-- Generator: Sketch 53.2 (72643) - https://sketchapp.com -->
    <title>avivatec1</title>
    <desc>Created with Sketch.</desc>
    <g id="01---Fluxo-Inicial" stroke="none" stroke-width="1" fill="none" fill-rule="evenodd">
        <g id="001.1---Home" transform="translate(-135.000000, -97.000000)" fill-rule="nonzero">
            <g id="avivatec1" transform="translate(135.000000, 97.000000)">
                <path d="M209.83405,18.0035482 C208.268848,18.0035482 207,19.3458997 207,21.0017741 C207,22.6576485 208.268848,24 209.83405,24 L216.260133,24 C217.788321,23.9443916 219,22.6176708 219,21 C219,19.3823292 217.788321,18.0556084 216.260133,18 L209.83405,18.0035482 Z" id="Path" fill="#FDB913"></path>
                <path d="M27.4853253,14.0528672 L26.4771173,11.830673 L26.4771173,11.830673 L22.7606543,3.47507972 C22.0928756,1.96745738 20.6313542,1 19.0215934,1 C17.4118327,1 15.9503113,1.96745738 15.2825326,3.47507972 L11.5660696,11.830673 L11.5660696,11.830673 L10.5752445,14.0528672 L0.395820923,36.9547074 C-0.238521586,38.3333096 -0.103225778,39.9565767 0.749975749,41.2038257 C1.60317728,42.4510747 3.04232628,43.1294029 4.51714026,42.9794403 C5.99195424,42.8294776 7.27433484,41.8744178 7.87394256,40.4794437 L15.8387853,22.5873811 L15.8387853,22.5873811 L17.8308651,18.0857381 L18.0429364,17.6098092 C18.5818062,16.4003058 19.4613807,16.4003058 20.0002505,17.6098092 L20.2123218,18.0857381 L22.2044016,22.5659106 L22.2044016,22.5659106 L30.1692443,40.4579732 C31.1326439,42.5517076 33.5521916,43.4594479 35.5985916,42.4948981 C37.6449916,41.5303484 38.5580125,39.0518359 37.647366,36.9332369 L27.4853253,14.0528672 Z" id="Path" fill="#FFFFFF"></path>
                <path d="M67.5884588,1.38558427 C65.5242005,0.411599262 63.084644,1.3464044 62.1392298,3.4736553 L51.9254008,26.4675079 C51.4006345,27.541987 50.594371,27.541987 50.0696047,26.4675079 L39.8557757,3.4736553 C38.9066617,1.34526125 36.463069,0.412805306 34.3978585,1.39095666 C32.332648,2.36910802 31.427873,4.88746065 32.3769869,7.01585471 L38.7784409,21.4425273 L38.7784409,21.4425273 L43.5499915,32.1873182 L43.5499915,32.1873182 L47.2546331,40.5288576 C47.9255522,42.034785 49.3861396,43 50.9940275,43 C52.6019153,43 54.0625028,42.034785 54.7334218,40.5288576 L58.4415387,32.1873182 L58.4415387,32.1873182 L63.2130894,21.4425273 L63.2130894,21.4425273 L69.6180186,7.0301811 C70.0794616,6.00488622 70.124673,4.8321714 69.7436158,3.77237798 C69.3625586,2.71258456 68.5867645,1.85340791 67.5884588,1.38558427 Z" id="Path" fill="#FFFFFF"></path>
                <path d="M146.444543,14.0676017 L145.453783,11.8428991 L145.453783,11.8428991 L141.737566,3.47787368 C141.069831,1.96854948 139.608406,1 137.998752,1 C136.389097,1 134.927672,1.96854948 134.259938,3.47787368 L130.54372,11.8428991 L130.54372,11.8428991 L129.55296,14.0676017 L119.374208,36.9952944 C118.42864,39.1241966 119.336808,41.6399425 121.402658,42.6143703 C123.468508,43.5887981 125.909745,42.6529118 126.855313,40.5240096 L134.816154,22.6117497 L134.816154,22.6117497 L136.808102,18.1265198 L137.020159,17.6500537 C137.558993,16.4391849 138.43851,16.4391849 138.977344,17.6500537 L139.189401,18.1265198 L141.18135,22.6117497 L141.18135,22.6117497 L149.145667,40.5240096 C149.757342,41.9011678 151.035498,42.8374298 152.498667,42.9801148 C153.961835,43.1227998 155.387726,42.4502305 156.239219,41.2157572 C157.090712,39.981284 157.238446,38.3724526 156.626771,36.9952944 L146.444543,14.0676017 Z" id="Path" fill="#FFFFFF"></path>
                <path d="M79,1 C76.7955843,1.00196078 75.0074466,2.89312822 75,5.23047375 L75,38.7587708 C75,41.101137 76.790861,43 79,43 C81.209139,43 83,41.101137 83,38.7587708 L83,5.23047375 C82.9925534,2.89312822 81.2044157,1.00196078 79,1 L79,1 Z" id="Path" fill="#FFFFFF"></path>
                <path d="M183.831522,1 L153.179076,1 C150.871036,1 149,2.91742439 149,5.28268724 C149,7.64795009 150.871036,9.56537448 153.179076,9.56537448 L159.989946,9.56537448 L159.989946,9.56537448 L163.130435,9.56537448 C163.448673,9.56918706 163.752342,9.7026602 163.974383,9.93632002 C164.196425,10.1699799 164.318575,10.4846055 164.313859,10.8107206 L164.313859,38.8382477 C164.379609,41.1560272 166.23204,43 168.494701,43 C170.757362,43 172.609793,41.1560272 172.675543,38.8382477 L172.675543,10.8071004 C172.679402,10.1329556 173.21173,9.58742947 173.869565,9.58347544 L176.547283,9.58347544 L176.547283,9.58347544 L183.820924,9.58347544 C186.128964,9.58347544 188,7.66605105 188,5.3007882 C188,2.93552535 186.128964,1.01810096 183.820924,1.01810096 L183.831522,1 Z" id="Path" fill="#FFFFFF"></path>
                <path d="M227.999987,5.25585496 C228.002754,4.12812352 227.571167,3.04560105 226.800461,2.24716274 C226.029756,1.44872444 224.98328,0.999997904 223.891955,1.00000153 L196.111518,1.00000153 C195.019591,0.999044091 193.972222,1.4473497 193.200764,2.24589172 C192.429307,3.04443375 191.997244,4.12750143 192.000013,5.25585496 L192.000013,36.7549118 C192.000013,37.8807792 192.432823,38.960534 193.203228,39.7566425 C193.973633,40.5527509 195.018527,41 196.108045,41 L223.888482,41 C226.157286,41 227.996514,39.0994093 227.996514,36.7549118 C227.996514,34.4104143 226.157286,32.5098236 223.888482,32.5098236 L201.351603,32.5098236 C200.722386,32.4867338 200.222879,31.9547284 200.21955,31.3041181 L200.21955,10.7245907 C200.22134,10.0624683 200.735263,9.52342483 201.375911,9.51170839 L210.994887,9.51170839 L210.994887,9.51170839 L223.891955,9.51170839 C224.98328,9.51171202 226.029756,9.06298548 226.800461,8.26454718 C227.571167,7.46610887 228.002754,6.38358641 227.999987,5.25585496 Z" id="Path" fill="#FFFFFF"></path>
                <path d="M259.823606,30.7498243 C256.076682,34.5095105 250.431162,35.6406484 245.52359,33.6149793 C240.616018,31.5893101 237.414699,26.8065159 237.414699,21.5002343 C237.414699,16.1939526 240.616018,11.4111584 245.52359,9.38548923 C250.431162,7.3598201 256.076682,8.49095796 259.823606,12.2506442 C261.457793,13.8839772 264.106295,13.8880123 265.745458,12.2596664 C267.38462,10.6313204 267.396413,7.9845453 265.771826,6.34167593 C258.899937,-0.565633079 248.239878,-1.99314449 239.790758,2.86249545 C231.341639,7.71813539 227.214514,17.6437211 229.731985,27.0534784 C232.249457,36.4632357 240.782522,43.0060904 250.529069,42.9999516 C256.254834,43.0121275 261.746035,40.7277256 265.771826,36.6587926 C266.833221,35.5979526 267.246258,34.0510555 266.85482,32.602793 C266.463382,31.1545305 265.327179,30.0258255 263.875671,29.6433027 C262.424162,29.2607799 260.878766,29.6827905 259.823606,30.7498243 L259.823606,30.7498243 Z" id="Path" fill="#FFFFFF"></path>
                <path d="M118.225498,21.4598456 L118.225498,21.4598456 L124.62353,7.05981576 C125.572137,4.9312642 124.66629,2.41346151 122.600265,1.43614605 C120.534241,0.458830599 118.090399,1.39209186 117.141793,3.52064341 L106.929951,26.4948461 C106.405465,27.5684069 105.603106,27.5684069 105.07862,26.4948461 L94.8667779,3.52064341 C94.2677158,2.1256211 92.986502,1.17052825 91.51303,1.02056046 C90.039558,0.870592662 88.6017185,1.54894431 87.7492933,2.7962364 C86.8968681,4.04352849 86.7616955,5.66685175 87.3954608,7.04550161 L93.7934924,21.4598456 L93.7934924,21.4598456 L98.5659656,32.1954543 L98.5659656,32.1954543 L102.2721,40.5298652 C102.941398,42.0349613 104.400855,43 106.007759,43 C107.614663,43 109.074119,42.0349613 109.743417,40.5298652 L113.446078,32.1954543 L113.446078,32.1954543 L118.225498,21.4598456 Z" id="Path" fill="#FFFFFF"></path>
            </g>
        </g>
    </g>
</svg>