<?xml version="1.0" encoding="UTF-8"?>
<svg width="70px" height="62px" viewBox="0 0 70 62" version="1.1" xmlns="http://www.w3.org/2000/svg" xmlns:xlink="http://www.w3.org/1999/xlink">
    <!-- Generator: Sketch 53.2 (72643) - https://sketchapp.com -->
    <title>give-money</title>
    <desc>Created with Sketch.</desc>
    <g id="01---Fluxo-Inicial" stroke="none" stroke-width="1" fill="none" fill-rule="evenodd">
        <g id="001.1---Home" transform="translate(-135.000000, -1435.000000)" fill="#313131" fill-rule="nonzero">
            <g id="Vantagens" transform="translate(0.000000, 1396.000000)">
                <g id="give-money" transform="translate(135.000000, 39.000000)">
                    <g id="Group" transform="translate(33.000000, 0.000000)">
                        <path d="M19.3742234,17.0497566 C17.2876596,16.217746 16.6848351,15.7146243 16.6848351,14.8060688 C16.6848351,14.0789894 17.2384574,13.2295556 18.7993457,13.2295556 C20.1799574,13.2295556 21.2387872,13.7710476 21.248234,13.775746 C21.3596277,13.8348677 21.4846011,13.8663862 21.6083936,13.8663862 C21.9104947,13.8663862 22.1777606,13.6845185 22.2885638,13.4030053 L22.6678138,12.4386561 C22.7998723,12.087254 22.5995213,11.7810741 22.3440638,11.6712487 C21.4940479,11.3032063 19.8327872,11.0183651 19.8158617,11.0154286 C19.7890957,11.0107302 19.6960053,10.9909577 19.6960053,10.8826984 L19.6906915,9.48374603 C19.6906915,9.06245503 19.3370266,8.7194709 18.902867,8.7194709 L18.2225,8.7194709 C17.788734,8.7194709 17.435266,9.06225926 17.435266,9.4839418 L17.4370372,10.9547407 C17.4370372,11.0675026 17.3142287,11.1164444 17.2693564,11.1268201 C15.1723617,11.6236772 13.8618138,13.1516402 13.8618138,15.0789683 C13.8618138,17.481619 15.8584362,18.5673439 18.0142766,19.3823228 C19.7377287,20.0553704 20.4407287,20.7378148 20.4407287,21.7387725 C20.4407287,22.8280212 19.4450745,23.5887725 18.0186064,23.5887725 C16.8005585,23.5887725 15.1520904,22.8207778 15.1357553,22.8129471 C15.030266,22.7632222 14.9184787,22.738164 14.8035426,22.738164 C14.4898298,22.738164 14.2166596,22.9268836 14.1074309,23.219164 L13.7453032,24.1944762 C13.6165904,24.5586032 13.8147766,24.8542116 14.0684628,24.9857672 C15.0808457,25.5102275 17.0398777,25.817582 17.1270638,25.8310899 C17.150484,25.834418 17.26975,25.8761164 17.26975,25.9845714 L17.26975,27.4489101 C17.26975,27.8702011 17.6234149,28.2131852 18.0577713,28.2131852 L18.7607713,28.2131852 C19.1953245,28.2131852 19.5489894,27.8703968 19.5489894,27.4489101 L19.5489894,25.9078307 C19.5489894,25.763746 19.6558564,25.7510212 19.6778989,25.7457354 C21.9118723,25.2465291 23.2879574,23.6206825 23.2879574,21.5792222 C23.287367,19.4823598 22.11675,18.127455 19.3742234,17.0497566 Z" id="Path"></path>
                        <path d="M18.495867,0.0996455026 C8.29803723,0.0996455026 0.0316861702,8.32284656 0.0316861702,18.4661323 C0.0316861702,28.6096138 8.29803723,36.8330106 18.495867,36.8330106 C28.6933032,36.8330106 36.9598511,28.6096138 36.9598511,18.4661323 C36.9598511,8.32284656 28.6933032,0.0996455026 18.495867,0.0996455026 Z M18.495867,32.5764444 C10.6613138,32.5764444 4.31069681,26.2588413 4.31069681,18.466328 C4.31069681,10.6738148 10.6613138,4.35640741 18.495867,4.35640741 C26.3300266,4.35640741 32.6804468,10.6738148 32.6804468,18.466328 C32.6804468,26.2588413 26.3300266,32.5764444 18.495867,32.5764444 Z" id="Shape"></path>
                    </g>
                    <g id="Group" transform="translate(0.000000, 37.000000)">
                        <path d="M66.2823307,8.06089462 C62.3406992,10.4934032 56.9194247,12.7425513 51.5129683,13.6907237 C46.7027948,14.5341818 37.6534411,12.4999852 37.6534411,10.0975213 C37.6534411,9.18712553 45.5900495,12.3407046 50.3909369,10.9085048 C54.0723615,9.8103302 53.5497743,5.9597604 51.5473464,5.451874 C49.5565755,4.9466386 37.8932978,0.169104316 32.9114312,0.00430081174 C30.5646292,-0.0732407832 24.7707272,0.916905737 21.9671307,1.42744313 C21.0067161,1.60218787 20.404506,1.58296816 20.344443,2.61067043 C20.0654664,7.38687922 19.5156137,17.1540274 19.2158917,22.2558667 C19.2095692,22.3636738 19.3435254,23.813326 20.4133969,22.7931349 C21.5844269,21.6766243 23.2268722,20.4390516 24.7460303,20.8243295 C27.1293837,21.4289772 47.748562,25.6526745 50.5926615,24.9134888 C54.6613341,23.8559629 66.1789987,16.22397 68.3873002,13.8517716 C71.8100985,10.1741792 69.149349,6.29157657 66.2823307,8.06089462 Z" id="Path"></path>
                        <path d="M15.0340905,0.607548458 L3.99036508,0.00216789183 C3.13772452,-0.0445727012 2.26690399,0.670243773 2.05500635,1.58999977 L0.0469277325,21.871597 C-0.164767911,22.7915777 0.360027205,23.5744827 1.21307177,23.6111111 L13.4522311,23.6097628 C14.3054777,23.6463913 15.0565124,22.9016878 15.1219603,21.9547413 L16.466066,2.41402744 C16.5311099,1.46730571 15.886731,0.654289051 15.0340905,0.607548458 Z M8.53252942,20.9228529 C6.84603427,20.9228529 5.47910257,19.4019859 5.47910257,17.5260702 C5.47910257,15.6499297 6.84623627,14.1292874 8.53252942,14.1292874 C10.2188226,14.1292874 11.5859563,15.6501544 11.5859563,17.5260702 C11.5859563,19.4022106 10.2190246,20.9228529 8.53252942,20.9228529 Z" id="Shape"></path>
                    </g>
                </g>
            </g>
        </g>
    </g>
</svg>