<?xml version="1.0" encoding="UTF-8"?>
<svg width="24px" height="24px" viewBox="0 0 24 24" version="1.1" xmlns="http://www.w3.org/2000/svg" xmlns:xlink="http://www.w3.org/1999/xlink">
    <!-- Generator: Sketch 53.2 (72643) - https://sketchapp.com -->
    <title>ico_email</title>
    <desc>Created with Sketch.</desc>
    <g id="01---Fluxo-Inicial" stroke="none" stroke-width="1" fill="none" fill-rule="evenodd">
        <g id="001.1---Home" transform="translate(-1014.000000, -2602.000000)" fill="#EFEFEF">
            <g id="Group-11" transform="translate(1014.000000, 2515.000000)">
                <g id="ico_email" transform="translate(0.000000, 87.000000)">
                    <g id="Shape">
                        <path d="M11.99968,0 C5.37256,0 8e-05,5.37264 8e-05,11.99976 C8e-05,18.62672 5.37256,23.99976 11.99968,23.99976 C18.6268,23.99976 23.99968,18.62672 23.99968,11.99976 C23.99968,5.37264 18.6268,0 11.99968,0 Z M11.99992,4.21488 L19.10096,8.64288 L4.89888,8.64288 L11.99992,4.21488 Z M19.18944,15.71384 L19.18872,15.71384 C19.18872,16.42408 18.61312,16.9996 17.90296,16.9996 L6.09688,16.9996 C5.38664,16.9996 4.81112,16.424 4.81112,15.71384 L4.81112,8.92464 C4.81112,8.84952 4.8188,8.77648 4.83128,8.70472 L11.61592,12.93536 C11.62424,12.94056 11.63312,12.94408 11.64168,12.94888 C11.65064,12.95384 11.65976,12.95864 11.66888,12.9632 C11.7168,12.98792 11.76616,13.00784 11.81664,13.02088 C11.82184,13.02232 11.82704,13.02296 11.83224,13.02416 C11.8876,13.0372 11.94368,13.04536 11.99968,13.04536 L12.00008,13.04536 C12.00048,13.04536 12.00088,13.04536 12.00088,13.04536 C12.05688,13.04536 12.11296,13.03744 12.16832,13.02416 C12.17352,13.02288 12.17872,13.02232 12.18392,13.02088 C12.23432,13.00784 12.28352,12.98792 12.33168,12.9632 C12.3408,12.95864 12.34992,12.95384 12.35888,12.94888 C12.36736,12.94408 12.37632,12.94056 12.38464,12.93536 L19.16928,8.70472 C19.18176,8.77648 19.18944,8.84936 19.18944,8.92464 L19.18944,15.71384 Z" fill-rule="nonzero"></path>
                    </g>
                </g>
            </g>
        </g>
    </g>
</svg>