<?xml version="1.0" encoding="UTF-8"?>
<svg width="24px" height="24px" viewBox="0 0 24 24" version="1.1" xmlns="http://www.w3.org/2000/svg" xmlns:xlink="http://www.w3.org/1999/xlink">
    <!-- Generator: Sketch 53.2 (72643) - https://sketchapp.com -->
    <title>ico_whatsapp</title>
    <desc>Created with Sketch.</desc>
    <g id="01---Fluxo-Inicial" stroke="none" stroke-width="1" fill="none" fill-rule="evenodd">
        <g id="001.1---Home" transform="translate(-1014.000000, -2644.000000)">
            <g id="Group-11" transform="translate(1014.000000, 2515.000000)">
                <g id="ico_whatsapp" transform="translate(0.000000, 129.000000)">
                    <g id="whatsapp">
                        <path d="M0,24 L2.064,17.8084138 C1.01668966,16.0468966 0.413793103,13.9911724 0.413793103,11.7931034 C0.413793103,5.28 5.6937931,0 12.2068966,0 C18.72,0 24,5.28 24,11.7931034 C24,18.3062069 18.72,23.5862069 12.2068966,23.5862069 C10.2252414,23.5862069 8.35903448,23.0950345 6.72,22.2318621 L0,24 Z" id="Path" fill="#2CB742" fill-rule="nonzero"></path>
                        <path d="M19.8678987,15.6601144 C19.3195637,14.6238808 17.2974745,13.4388995 17.2974745,13.4388995 C16.8399732,13.1780703 16.2878882,13.1489041 16.0270541,13.6138968 C16.0270541,13.6138968 15.3699689,14.401801 15.202885,14.5151325 C14.4395495,15.0322076 13.7324641,15.012208 13.018712,14.2984693 L11.3599571,12.6397455 L9.7012023,10.9810218 C8.98745021,10.2672831 8.96745015,9.560211 9.484535,8.79688976 C9.59786866,8.62980907 10.3857876,7.97273615 10.3857876,7.97273615 C10.850789,7.71149029 10.8216222,7.15983236 10.5607881,6.70233961 C10.5607881,6.70233961 9.37578468,4.68028831 8.33953165,4.13196367 C7.89869703,3.89863403 7.35744545,3.9802994 7.00494442,4.33279382 L6.27244227,5.06528221 C3.94868548,7.3889954 5.09285549,10.0122872 7.41661229,12.3360004 L9.54036849,14.4597167 L11.6641247,16.5834331 C13.9878815,18.9071462 16.6112225,20.0512948 18.9349793,17.7275816 L19.6674814,16.9950932 C20.0199825,16.6417655 20.1012327,16.100524 19.8678987,15.6601144 Z" id="Path" fill="#FFFFFF" fill-rule="nonzero"></path>
                    </g>
                </g>
            </g>
        </g>
    </g>
</svg>