<?xml version="1.0" encoding="UTF-8"?>
<svg width="16px" height="16px" viewBox="0 0 16 16" version="1.1" xmlns="http://www.w3.org/2000/svg" xmlns:xlink="http://www.w3.org/1999/xlink">
    <!-- Generator: Sketch 53.2 (72643) - https://sketchapp.com -->
    <title>ico_atencao</title>
    <desc>Created with Sketch.</desc>
    <g id="01---Fluxo-Inicial" stroke="none" stroke-width="1" fill="none" fill-rule="evenodd">
        <g id="001.1---Home" transform="translate(-134.000000, -15.000000)">
            <g id="Group-6">
                <g id="ico_atencao" transform="translate(135.000000, 16.000000)">
                    <g id="Group-6">
                        <path d="M6.992,11 C6.71466528,11 6.48000096,10.9213889 6.288,10.7641643 C6.09599904,10.6069397 6,10.4178481 6,10.1968839 C6,9.97591958 6.09599904,9.78682798 6.288,9.6296034 C6.48000096,9.47237882 6.71466528,9.39376771 6.992,9.39376771 C7.26933472,9.39376771 7.50666568,9.47237882 7.704,9.6296034 C7.90133432,9.78682798 8,9.97591958 8,10.1968839 C8,10.4178481 7.90133432,10.6069397 7.704,10.7641643 C7.50666568,10.9213889 7.26933472,11 6.992,11 Z M6.432,5.5184136 L6.4,4.11614731 C6.4,3.76770364 6.38933344,3.37252346 6.368,2.9305949 C6.35733328,2.86260589 6.352,2.78187016 6.352,2.68838527 C6.352,2.22945946 6.57599776,2 7.024,2 C7.48266896,2 7.712,2.24645646 7.712,2.73937677 C7.712,2.83286166 7.70666672,2.91784664 7.696,2.99433428 C7.68533328,3.03682741 7.66933344,3.41076135 7.648,4.11614731 L7.6,5.49291785 L7.6,7.88951841 C7.6,8.18697033 7.59466672,8.36968805 7.584,8.43767705 C7.54133312,8.67563858 7.42933424,8.80736531 7.248,8.83286119 C7.18399968,8.84135982 7.10400048,8.84560907 7.008,8.84560907 C6.62399808,8.84560907 6.432,8.6331466 6.432,8.2082153 L6.432,5.5184136 Z" id="!" fill="#FFFFFF" fill-rule="nonzero"></path>
                        <circle id="Oval" stroke="#FFFFFF" cx="7" cy="7" r="7"></circle>
                    </g>
                </g>
            </g>
        </g>
    </g>
</svg>